<svg width="300" height="200" xmlns="http://www.w3.org/2000/svg">
  <rect width="100%" height="100%" fill="#FFF8DC" />
  <g transform="translate(75,50)">
    <path d="M75,25 C120,25 150,50 150,75 C150,100 120,125 75,125 C30,125 0,100 0,75 C0,50 30,25 75,25 Z" fill="#F4A460" />
    <path d="M75,35 C115,35 140,55 140,75 C140,95 115,115 75,115 C35,115 10,95 10,75 C10,55 35,35 75,35 Z" fill="#FFDAB9" />
    <path d="M45,60 C55,50 95,50 105,60 C115,70 115,80 105,90 C95,100 55,100 45,90 C35,80 35,70 45,60 Z" fill="#8B4513" />
    <circle cx="55" cy="65" r="5" fill="#A52A2A" />
    <circle cx="95" cy="65" r="5" fill="#A52A2A" />
    <circle cx="75" cy="85" r="5" fill="#A52A2A" />
  </g>
  <text x="150" y="160" font-family="Arial" font-size="16" text-anchor="middle" fill="#8B4513">Pastry</text>
</svg>