<svg width="300" height="200" xmlns="http://www.w3.org/2000/svg">
  <rect width="100%" height="100%" fill="#FAFAD2" />
  <g transform="translate(50,60)">
    <path d="M0,0 L200,0 L180,20 L20,20 Z" fill="#F5DEB3" />
    <path d="M20,20 L180,20 L170,40 C170,40 150,50 130,45 C110,40 90,60 70,45 C50,30 30,45 30,45 L30,40 Z" fill="#90EE90" />
    <path d="M30,40 L30,45 C30,45 50,30 70,45 C90,60 110,40 130,45 C150,50 170,40 170,40 L170,60 L30,60 Z" fill="#FF6347" />
    <path d="M30,60 L170,60 L160,80 L40,80 Z" fill="#F5DEB3" />
  </g>
  <text x="150" y="160" font-family="Arial" font-size="16" text-anchor="middle" fill="#8B4513">Sandwich</text>
</svg>