<svg width="300" height="200" xmlns="http://www.w3.org/2000/svg">
  <rect width="100%" height="100%" fill="#E6E6FA" />
  <g transform="translate(100,70)">
    <path d="M30,0 L70,0 C85,0 95,10 95,25 L95,60 C95,80 80,95 60,95 L40,95 C20,95 5,80 5,60 L5,25 C5,10 15,0 30,0 Z" fill="#FFFFFF" stroke="#9370DB" stroke-width="3" />
    <line x1="5" y1="25" x2="95" y2="25" stroke="#9370DB" stroke-width="3" />
    <path d="M50,25 C50,25 20,40 50,55 C80,40 50,25 50,25" stroke="#9370DB" stroke-width="2" fill="none" />
    <path d="M95,40 L110,30 C115,28 120,32 118,38 L110,60 C108,65 102,65 100,60 L95,50" fill="#9370DB" />
  </g>
  <text x="150" y="160" font-family="Arial" font-size="16" text-anchor="middle" fill="#4B0082">Tea</text>
</svg>